<svg width="700" height="940" viewBox="0 0 700 940" xmlns="http://www.w3.org/2000/svg">
<rect width="700" height="940" fill="#ffffff"/>
<defs>
<marker id="arrow2" viewBox="0 0 10 10" refX="8" refY="5" markerWidth="6" markerHeight="6" orient="auto-start-reverse">
<path d="M2 1L8 5L2 9" fill="none" stroke="#3d3d3a" stroke-width="1.5" stroke-linecap="round" stroke-linejoin="round"/>
</marker>
</defs>
<style>
text { font-family: Arial, sans-serif; fill: #1a1a1a; }
.th { font-size: 13px; font-weight: 600; }
.ts { font-size: 11px; fill: #555; }
.box { fill: #f3f4f6; stroke: #9ca3af; stroke-width: 1; }
.box-coral { fill: #fee2e2; stroke: #f87171; stroke-width: 1; }
.box-amber { fill: #fef3c7; stroke: #fbbf24; stroke-width: 1; }
.box-green { fill: #d1fae5; stroke: #34d399; stroke-width: 1.2; }
.box-pink { fill: #fce7f3; stroke: #f472b6; stroke-width: 1; }
.box-purple { fill: #ede9fe; stroke: #a78bfa; stroke-width: 1; }
.arr { stroke: #3d3d3a; stroke-width: 1.5; fill: none; }
.dia { fill: #ffffff; stroke: #9ca3af; stroke-width: 1; }
</style>

<rect x="250" y="20" width="200" height="44" rx="8" class="box-coral"/>
<text x="350" y="46" text-anchor="middle" class="th">es_alerta = true</text>

<line x1="350" y1="64" x2="350" y2="100" class="arr" marker-end="url(#arrow2)"/>

<rect x="140" y="100" width="420" height="78" rx="8" class="box-green"/>
<text x="160" y="122" class="th">INSERT LecturasRFID_Salidas</text>
<text x="160" y="140" class="ts">Id=37, EPC, Antena=2</text>
<text x="160" y="158" class="ts">FechaLectura=datetime('now'), Alerta=1</text>

<line x1="350" y1="178" x2="350" y2="214" class="arr" marker-end="url(#arrow2)"/>

<rect x="250" y="214" width="200" height="44" rx="8" class="box-amber"/>
<text x="350" y="240" text-anchor="middle" class="th">RelayOn: luz/alarma</text>

<line x1="350" y1="258" x2="350" y2="294" class="arr" marker-end="url(#arrow2)"/>

<rect x="140" y="294" width="420" height="56" rx="8" class="box"/>
<text x="350" y="316" text-anchor="middle" class="th">SELECT Id=37, FechaLectura</text>
<text x="350" y="334" text-anchor="middle" class="ts">+ correos activos + descripción equipo</text>

<line x1="280" y1="350" x2="180" y2="396" class="arr" marker-end="url(#arrow2)"/>
<line x1="420" y1="350" x2="520" y2="396" class="arr" marker-end="url(#arrow2)"/>

<rect x="40" y="396" width="280" height="56" rx="8" class="box-pink"/>
<text x="180" y="418" text-anchor="middle" class="th">Correo inmediato sin video</text>
<text x="180" y="436" text-anchor="middle" class="ts">spawn_blocking, no bloquea</text>

<rect x="380" y="396" width="280" height="56" rx="8" class="box-purple"/>
<text x="520" y="418" text-anchor="middle" class="th">tokio::spawn en paralelo</text>
<text x="520" y="436" text-anchor="middle" class="ts">programar_descarga_video</text>

<line x1="180" y1="452" x2="180" y2="488" class="arr" marker-end="url(#arrow2)"/>
<rect x="40" y="488" width="280" height="44" rx="8" class="box"/>
<text x="180" y="514" text-anchor="middle" class="ts">Reconectar lector, sigue leyendo</text>

<line x1="520" y1="452" x2="520" y2="488" class="arr" marker-end="url(#arrow2)"/>
<rect x="380" y="488" width="280" height="44" rx="8" class="box-purple"/>
<text x="520" y="514" text-anchor="middle" class="th">Espera 8 min (delay del NVR)</text>

<line x1="520" y1="532" x2="520" y2="568" class="arr" marker-end="url(#arrow2)"/>

<rect x="380" y="568" width="280" height="56" rx="8" class="box-purple"/>
<text x="520" y="590" text-anchor="middle" class="th">Busca segmento vía curl</text>
<text x="520" y="608" text-anchor="middle" class="ts">hasta 5 intentos cada 60s</text>

<line x1="520" y1="624" x2="520" y2="660" class="arr" marker-end="url(#arrow2)"/>

<polygon points="520,660 610,692 520,724 430,692" class="dia"/>
<text x="520" y="692" text-anchor="middle" class="ts">¿Disponible?</text>

<line x1="430" y1="692" x2="300" y2="692" class="arr" marker-end="url(#arrow2)"/>
<text x="365" y="680" text-anchor="middle" class="ts">no</text>
<rect x="120" y="670" width="180" height="44" rx="8" class="box"/>
<text x="210" y="696" text-anchor="middle" class="ts">Sin video, queda log</text>

<line x1="520" y1="724" x2="520" y2="760" class="arr" marker-end="url(#arrow2)"/>
<text x="536" y="744" class="ts">sí</text>

<rect x="380" y="760" width="280" height="44" rx="8" class="box-purple"/>
<text x="520" y="782" text-anchor="middle" class="th">ffmpeg descarga clip.mp4</text>

<line x1="520" y1="804" x2="520" y2="840" class="arr" marker-end="url(#arrow2)"/>

<rect x="300" y="840" width="360" height="64" rx="8" class="box-green"/>
<text x="320" y="862" class="th">UPDATE LecturasRFID_Salidas</text>
<text x="320" y="880" class="ts">SET video_clip=ruta WHERE Id=37</text>

<line x1="300" y1="872" x2="80" y2="872" class="arr" marker-end="url(#arrow2)"/>
<rect x="20" y="850" width="160" height="44" rx="8" class="box-pink"/>
<text x="100" y="876" text-anchor="middle" class="ts">Correo con video</text>
</svg>
